<svg width="68" height="68" viewBox="0 0 68 68" fill="none" xmlns="http://www.w3.org/2000/svg">
<path fill-rule="evenodd" clip-rule="evenodd" d="M18.7255 5.7035C22.9733 2.04057 28.391 0.0175887 34 0C45.4325 0 54.9228 8.5 55.9555 19.4607C62.7215 20.417 68 26.0822 68 33.0352C68 40.6682 61.6335 46.75 53.9198 46.75H42.5C41.9364 46.75 41.3959 46.5261 40.9974 46.1276C40.5989 45.7291 40.375 45.1886 40.375 44.625C40.375 44.0614 40.5989 43.5209 40.9974 43.1224C41.3959 42.7239 41.9364 42.5 42.5 42.5H53.924C59.4107 42.5 63.75 38.199 63.75 33.0352C63.75 27.8672 59.415 23.5663 53.9198 23.5663H51.7948V21.4413C51.799 12.0063 43.894 4.25 34 4.25C29.4095 4.26834 24.9766 5.92634 21.5008 8.925C18.2835 11.696 16.6005 15.0365 16.6005 17.6588V19.5628L14.7092 19.771C8.772 20.4212 4.25 25.296 4.25 31.1015C4.25 37.3362 9.4775 42.5 16.0692 42.5H25.5C26.0636 42.5 26.6041 42.7239 27.0026 43.1224C27.4011 43.5209 27.625 44.0614 27.625 44.625C27.625 45.1886 27.4011 45.7291 27.0026 46.1276C26.6041 46.5261 26.0636 46.75 25.5 46.75H16.0692C7.259 46.75 0 39.8055 0 31.1015C0 23.6087 5.3805 17.4037 12.5035 15.8312C13.1112 12.1635 15.47 8.5085 18.7255 5.7035V5.7035Z" fill="#5D6174"/>
<path fill-rule="evenodd" clip-rule="evenodd" d="M32.4955 17.6205C32.6929 17.4226 32.9274 17.2656 33.1856 17.1585C33.4437 17.0514 33.7205 16.9962 34 16.9962C34.2795 16.9962 34.5563 17.0514 34.8144 17.1585C35.0726 17.2656 35.3071 17.4226 35.5045 17.6205L48.2545 30.3705C48.6535 30.7695 48.8777 31.3107 48.8777 31.875C48.8777 32.4393 48.6535 32.9805 48.2545 33.3795C47.8555 33.7785 47.3143 34.0027 46.75 34.0027C46.1857 34.0027 45.6445 33.7785 45.2455 33.3795L36.125 24.2548V61.625C36.125 62.1886 35.9011 62.7291 35.5026 63.1276C35.1041 63.5261 34.5636 63.75 34 63.75C33.4364 63.75 32.8959 63.5261 32.4974 63.1276C32.0989 62.7291 31.875 62.1886 31.875 61.625V24.2548L22.7545 33.3795C22.3555 33.7785 21.8143 34.0027 21.25 34.0027C20.6857 34.0027 20.1445 33.7785 19.7455 33.3795C19.3465 32.9805 19.1223 32.4393 19.1223 31.875C19.1223 31.3107 19.3465 30.7695 19.7455 30.3705L32.4955 17.6205Z" fill="#5D6174"/>
</svg>
