<svg width="72" height="96" viewBox="0 0 72 96" fill="none" xmlns="http://www.w3.org/2000/svg">
<g clip-path="url(#clip0_4_107)">
<path d="M4.5 96H67.5C69.981 96 72 93.981 72 91.5V28.5C72 28.449 71.976 28.407 71.973 28.359C71.967 28.29 71.949 28.23 71.934 28.164C71.8869 27.9556 71.7947 27.76 71.664 27.591C71.643 27.564 71.646 27.531 71.625 27.504L47.625 0.504C47.616 0.495 47.604 0.495 47.595 0.486C47.4119 0.294631 47.1809 0.155817 46.926 0.084C46.869 0.066 46.818 0.06 46.758 0.051C46.671 0.036 46.59 0 46.5 0H4.5C2.019 0 0 2.019 0 4.5V91.5C0 93.981 2.019 96 4.5 96ZM48 5.445L67.161 27H49.5C48.84 27 48 25.74 48 24.75V5.445ZM3 4.5C3 4.10218 3.15804 3.72064 3.43934 3.43934C3.72064 3.15804 4.10218 3 4.5 3H45V24.75C45 27.177 46.965 30 49.5 30H69V91.5C69 91.8978 68.842 92.2794 68.5607 92.5607C68.2794 92.842 67.8978 93 67.5 93H4.5C3.66 93 3 92.34 3 91.5V4.5Z" fill="#D6D8E1"/>
<path d="M16.5 42H55.5C55.8978 42 56.2794 41.8419 56.5607 41.5606C56.842 41.2793 57 40.8978 57 40.5C57 40.1021 56.842 39.7206 56.5607 39.4393C56.2794 39.158 55.8978 39 55.5 39H16.5C16.1022 39 15.7206 39.158 15.4393 39.4393C15.158 39.7206 15 40.1021 15 40.5C15 40.8978 15.158 41.2793 15.4393 41.5606C15.7206 41.8419 16.1022 42 16.5 42Z" fill="#D6D8E1"/>
<path d="M16.5 54H55.5C55.8978 54 56.2794 53.8419 56.5607 53.5606C56.842 53.2793 57 52.8978 57 52.5C57 52.1021 56.842 51.7206 56.5607 51.4393C56.2794 51.158 55.8978 51 55.5 51H16.5C16.1022 51 15.7206 51.158 15.4393 51.4393C15.158 51.7206 15 52.1021 15 52.5C15 52.8978 15.158 53.2793 15.4393 53.5606C15.7206 53.8419 16.1022 54 16.5 54Z" fill="#D6D8E1"/>
<path d="M16.5 30H34.5C34.8978 30 35.2794 29.8419 35.5607 29.5606C35.842 29.2793 36 28.8978 36 28.5C36 28.1021 35.842 27.7206 35.5607 27.4393C35.2794 27.158 34.8978 27 34.5 27H16.5C16.1022 27 15.7206 27.158 15.4393 27.4393C15.158 27.7206 15 28.1021 15 28.5C15 28.8978 15.158 29.2793 15.4393 29.5606C15.7206 29.8419 16.1022 30 16.5 30Z" fill="#D6D8E1"/>
<path d="M16.5 66H55.5C55.8978 66 56.2794 65.8419 56.5607 65.5606C56.842 65.2793 57 64.8978 57 64.5C57 64.1021 56.842 63.7206 56.5607 63.4393C56.2794 63.158 55.8978 63 55.5 63H16.5C16.1022 63 15.7206 63.158 15.4393 63.4393C15.158 63.7206 15 64.1021 15 64.5C15 64.8978 15.158 65.2793 15.4393 65.5606C15.7206 65.8419 16.1022 66 16.5 66Z" fill="#D6D8E1"/>
<path d="M16.5 78H55.5C55.8978 78 56.2794 77.8419 56.5607 77.5606C56.842 77.2793 57 76.8978 57 76.5C57 76.1021 56.842 75.7206 56.5607 75.4393C56.2794 75.158 55.8978 75 55.5 75H16.5C16.1022 75 15.7206 75.158 15.4393 75.4393C15.158 75.7206 15 76.1021 15 76.5C15 76.8978 15.158 77.2793 15.4393 77.5606C15.7206 77.8419 16.1022 78 16.5 78Z" fill="#D6D8E1"/>
</g>
<defs>
<clipPath id="clip0_4_107">
<rect width="72" height="96" fill="white"/>
</clipPath>
</defs>
</svg>
