<svg width="32" height="32" viewBox="0 0 32 32" fill="none" xmlns="http://www.w3.org/2000/svg">
<path d="M25.3333 14.6666H9.51992L14.3599 8.85331C14.5862 8.58103 14.6951 8.22998 14.6626 7.87742C14.6301 7.52485 14.4589 7.19963 14.1866 6.97331C13.9143 6.747 13.5633 6.63811 13.2107 6.67062C12.8581 6.70313 12.5329 6.87436 12.3066 7.14665L5.63992 15.1466C5.59507 15.2103 5.55496 15.2771 5.51992 15.3466C5.51992 15.4133 5.51992 15.4533 5.42659 15.52C5.36615 15.6729 5.33451 15.8356 5.33325 16C5.33451 16.1644 5.36615 16.3271 5.42659 16.48C5.42659 16.5466 5.42659 16.5866 5.51992 16.6533C5.55496 16.7228 5.59507 16.7897 5.63992 16.8533L12.3066 24.8533C12.4319 25.0038 12.5889 25.1249 12.7664 25.2078C12.9438 25.2908 13.1374 25.3336 13.3333 25.3333C13.6448 25.3339 13.9467 25.2254 14.1866 25.0266C14.3216 24.9147 14.4332 24.7772 14.515 24.6221C14.5968 24.467 14.6472 24.2972 14.6633 24.1226C14.6794 23.948 14.6609 23.7719 14.6088 23.6044C14.5568 23.4369 14.4722 23.2814 14.3599 23.1466L9.51992 17.3333H25.3333C25.6869 17.3333 26.026 17.1928 26.2761 16.9428C26.5261 16.6927 26.6666 16.3536 26.6666 16C26.6666 15.6464 26.5261 15.3072 26.2761 15.0572C26.026 14.8071 25.6869 14.6666 25.3333 14.6666Z" fill="#5D6174"/>
</svg>
