<svg width="54" height="54" viewBox="0 0 54 54" fill="none" xmlns="http://www.w3.org/2000/svg">
<g clip-path="url(#clip0_4_139)">
<path d="M42.0898 49.3849H3.00996C1.18962 49.3849 0 48.1078 0 46.5548V16.4649C0 14.5987 1.14372 13.186 3.00996 13.186H27.0146V19.1536H5.96538V43.4568H38.8919V34.2055L45.3665 34.2012V46.5542C45.3665 48.1078 43.8637 49.3849 42.0898 49.3849Z" fill="#4174D8"/>
<path d="M8.93378 40.76L21.4877 28.7034L27.1275 33.9841L33.1933 26.011L36.1654 31.701L36.1865 40.76H8.93378Z" fill="#4174D8"/>
<path d="M15.1459 28.616C13.4347 28.616 12.0442 27.2255 12.0442 25.5137C12.0442 23.7981 13.4347 22.4081 15.1459 22.4081C16.8621 22.4081 18.252 23.7981 18.252 25.5137C18.252 27.2255 16.8621 28.616 15.1459 28.616Z" fill="#4174D8"/>
<path d="M45.3833 16.4649V28.3568H38.8709L38.8623 16.4649H30.3044L42.152 4.61511L54.0001 16.4649H45.3833Z" fill="#4174D8"/>
</g>
<defs>
<clipPath id="clip0_4_139">
<rect width="54" height="54" fill="white"/>
</clipPath>
</defs>
</svg>
