<svg width="54" height="54" viewBox="0 0 54 54" fill="none" xmlns="http://www.w3.org/2000/svg">
<g clip-path="url(#clip0_4_188)">
<path d="M34.8838 40.5H44.8506V42.1875C44.8595 42.2603 44.8595 42.334 44.8506 42.4069C44.8586 42.4741 44.8586 42.5421 44.8506 42.6094C44.7687 42.8854 44.6267 43.1391 44.4353 43.3519L36.1296 51.7894C35.9338 52.0021 35.6789 52.1493 35.3987 52.2113H35.1828H33.2227V42.1875C33.2227 41.7399 33.3977 41.3107 33.7092 40.9943C34.0207 40.6778 34.4432 40.5 34.8838 40.5ZM29.9004 38.8125V52.3125H9.9668C9.52624 52.3125 9.10372 52.1347 8.7922 51.8182C8.48068 51.5018 8.30566 51.0726 8.30566 50.625V3.375C8.30566 2.92745 8.48068 2.49822 8.7922 2.18176C9.10372 1.86529 9.52624 1.6875 9.9668 1.6875H43.1895C43.63 1.6875 44.0525 1.86529 44.3641 2.18176C44.6756 2.49822 44.8506 2.92745 44.8506 3.375V37.125H31.5615C31.121 37.125 30.6984 37.3028 30.3869 37.6193C30.0754 37.9357 29.9004 38.3649 29.9004 38.8125ZM26.5781 11.8125C26.5781 12.2601 26.7531 12.6893 27.0647 13.0057C27.3762 13.3222 27.7987 13.5 28.2393 13.5H36.5449C36.9855 13.5 37.408 13.3222 37.7195 13.0057C38.031 12.6893 38.2061 12.2601 38.2061 11.8125C38.2061 11.3649 38.031 10.9357 37.7195 10.6193C37.408 10.3028 36.9855 10.125 36.5449 10.125H28.2393C27.7987 10.125 27.3762 10.3028 27.0647 10.6193C26.7531 10.9357 26.5781 11.3649 26.5781 11.8125ZM26.5781 21.9375C26.5781 22.3851 26.7531 22.8143 27.0647 23.1307C27.3762 23.4472 27.7987 23.625 28.2393 23.625H36.5449C36.9855 23.625 37.408 23.4472 37.7195 23.1307C38.031 22.8143 38.2061 22.3851 38.2061 21.9375C38.2061 21.4899 38.031 21.0607 37.7195 20.7443C37.408 20.4278 36.9855 20.25 36.5449 20.25H28.2393C27.7987 20.25 27.3762 20.4278 27.0647 20.7443C26.7531 21.0607 26.5781 21.4899 26.5781 21.9375ZM22.7741 29.1769C22.6197 29.0187 22.436 28.8932 22.2336 28.8075C22.0311 28.7218 21.814 28.6777 21.5947 28.6777C21.3754 28.6777 21.1583 28.7218 20.9559 28.8075C20.7535 28.8932 20.5697 29.0187 20.4153 29.1769L18.2725 31.3706L17.7907 30.8644C17.6359 30.707 17.452 30.5822 17.2496 30.4971C17.0473 30.4119 16.8304 30.3681 16.6113 30.3681C16.3923 30.3681 16.1754 30.4119 15.973 30.4971C15.7707 30.5822 15.5868 30.707 15.4319 30.8644C15.277 31.0217 15.1542 31.2085 15.0704 31.4141C14.9865 31.6197 14.9434 31.84 14.9434 32.0625C14.9434 32.285 14.9865 32.5053 15.0704 32.7109C15.1542 32.9165 15.277 33.1033 15.4319 33.2606L17.0931 34.9481C17.2475 35.1063 17.4312 35.2318 17.6336 35.3175C17.8361 35.4032 18.0532 35.4473 18.2725 35.4473C18.4918 35.4473 18.7089 35.4032 18.9113 35.3175C19.1137 35.2318 19.2974 35.1063 19.4519 34.9481L22.7741 31.5731C22.9298 31.4162 23.0534 31.2296 23.1377 31.024C23.2221 30.8183 23.2655 30.5978 23.2655 30.375C23.2655 30.1522 23.2221 29.9317 23.1377 29.726C23.0534 29.5204 22.9298 29.3338 22.7741 29.1769ZM22.7741 19.0519C22.6197 18.8937 22.436 18.7682 22.2336 18.6825C22.0311 18.5968 21.814 18.5527 21.5947 18.5527C21.3754 18.5527 21.1583 18.5968 20.9559 18.6825C20.7535 18.7682 20.5697 18.8937 20.4153 19.0519L18.2725 21.2456L17.7907 20.7394C17.4779 20.4216 17.0537 20.2431 16.6113 20.2431C16.169 20.2431 15.7447 20.4216 15.4319 20.7394C15.1191 21.0571 14.9434 21.4881 14.9434 21.9375C14.9434 22.3869 15.1191 22.8179 15.4319 23.1356L17.0931 24.8231C17.2475 24.9813 17.4312 25.1068 17.6336 25.1925C17.8361 25.2782 18.0532 25.3223 18.2725 25.3223C18.4918 25.3223 18.7089 25.2782 18.9113 25.1925C19.1137 25.1068 19.2974 24.9813 19.4519 24.8231L22.7741 21.4481C22.9298 21.2913 23.0534 21.1046 23.1377 20.899C23.2221 20.6933 23.2655 20.4728 23.2655 20.25C23.2655 20.0272 23.2221 19.8067 23.1377 19.601C23.0534 19.3954 22.9298 19.2087 22.7741 19.0519ZM22.7741 8.92688C22.6197 8.76871 22.436 8.64317 22.2336 8.5575C22.0311 8.47182 21.814 8.42772 21.5947 8.42772C21.3754 8.42772 21.1583 8.47182 20.9559 8.5575C20.7535 8.64317 20.5697 8.76871 20.4153 8.92688L18.2725 11.1206L17.7907 10.6144C17.4779 10.2966 17.0537 10.1181 16.6113 10.1181C16.169 10.1181 15.7447 10.2966 15.4319 10.6144C15.1191 10.9321 14.9434 11.3631 14.9434 11.8125C14.9434 12.2619 15.1191 12.6929 15.4319 13.0106L17.0931 14.6981C17.2475 14.8563 17.4312 14.9818 17.6336 15.0675C17.8361 15.1532 18.0532 15.1973 18.2725 15.1973C18.4918 15.1973 18.7089 15.1532 18.9113 15.0675C19.1137 14.9818 19.2974 14.8563 19.4519 14.6981L22.7741 11.3231C22.9298 11.1663 23.0534 10.9796 23.1377 10.774C23.2221 10.5683 23.2655 10.3478 23.2655 10.125C23.2655 9.90223 23.2221 9.68166 23.1377 9.47603C23.0534 9.27039 22.9298 9.08375 22.7741 8.92688ZM36.5449 33.75C36.9855 33.75 37.408 33.5722 37.7195 33.2557C38.031 32.9393 38.2061 32.5101 38.2061 32.0625C38.2061 31.6149 38.031 31.1857 37.7195 30.8693C37.408 30.5528 36.9855 30.375 36.5449 30.375H28.2393C27.7987 30.375 27.3762 30.5528 27.0647 30.8693C26.7531 31.1857 26.5781 31.6149 26.5781 32.0625C26.5781 32.5101 26.7531 32.9393 27.0647 33.2557C27.3762 33.5722 27.7987 33.75 28.2393 33.75H36.5449Z" fill="#5D6174"/>
</g>
<defs>
<clipPath id="clip0_4_188">
<rect width="53.1562" height="54" fill="white"/>
</clipPath>
</defs>
</svg>
