<svg width="54" height="54" viewBox="0 0 54 54" fill="none" xmlns="http://www.w3.org/2000/svg">
<path d="M36.8172 4.21736C36.8172 4.65044 36.7405 5.0801 36.5904 5.48636L41.4504 16.686H35.64L31.7034 7.60856C31.0918 7.34906 30.562 6.92875 30.1701 6.39226C29.7783 5.85578 29.5391 5.22317 29.478 4.56164C29.4169 3.90012 29.5361 3.23439 29.823 2.63519C30.1099 2.03599 30.5538 1.5257 31.1074 1.15854C31.6611 0.791383 32.3039 0.581064 32.9675 0.549934C33.6311 0.518804 34.2907 0.668025 34.8764 0.981742C35.462 1.29546 35.9516 1.76195 36.2934 2.33166C36.6351 2.90137 36.8161 3.55302 36.8172 4.21736ZM18.36 16.686L22.2858 7.60856C22.9554 7.33287 23.5291 6.86615 23.9352 6.26661C24.3414 5.66706 24.562 4.96122 24.5697 4.2371C24.5773 3.51298 24.3717 2.80263 23.9783 2.19463C23.5849 1.58662 23.0213 1.10788 22.3576 0.818085C21.694 0.528292 20.9597 0.440279 20.2464 0.565021C19.533 0.689762 18.8722 1.02174 18.3463 1.51955C17.8204 2.01736 17.4526 2.65898 17.2889 3.3644C17.1253 4.06982 17.1729 4.80781 17.4258 5.48636L12.5658 16.686H18.36ZM4.86 20.3256H49.1076C50.0543 20.3256 50.9622 20.7016 51.6315 21.371C52.3009 22.0404 52.677 22.9483 52.677 23.895V28.4256C52.677 28.8943 52.5847 29.3584 52.4053 29.7915C52.2259 30.2246 51.963 30.6181 51.6315 30.9495C51.3001 31.281 50.9066 31.5439 50.4735 31.7233C50.0405 31.9026 49.5763 31.995 49.1076 31.995H47.8602L44.28 49.0104C44.1352 49.6639 43.8454 50.2766 43.4322 50.8032C42.9988 51.3555 42.4748 51.8303 41.8824 52.2072C41.2568 52.6086 40.5766 52.9177 39.8628 53.1252C39.1054 53.3485 38.3197 53.4612 37.53 53.46H16.47C15.6894 53.4586 14.9129 53.3459 14.1642 53.1252C13.4504 52.9177 12.7702 52.6086 12.1446 52.2072C11.5522 51.8304 11.0281 51.3556 10.5948 50.8032C10.1719 50.2791 9.87286 49.6662 9.72 49.0104L6.1398 31.995H4.8924C4.42366 31.995 3.95951 31.9026 3.52645 31.7233C3.09339 31.5439 2.6999 31.281 2.36845 30.9495C2.037 30.6181 1.77408 30.2246 1.5947 29.7915C1.41532 29.3584 1.323 28.8943 1.323 28.4256V23.895C1.323 22.9483 1.69906 22.0404 2.36845 21.371C3.03784 20.7016 3.94573 20.3256 4.8924 20.3256H4.86ZM33.8742 45.4734C33.863 45.6143 33.8811 45.756 33.9273 45.8896C33.9735 46.0232 34.0468 46.1459 34.1427 46.2498C34.2385 46.3538 34.3548 46.4368 34.4842 46.4937C34.6136 46.5505 34.7534 46.5801 34.8948 46.5804H37.0224C37.2684 46.5805 37.5062 46.4922 37.6926 46.3316C37.8789 46.171 38.0013 45.9489 38.0376 45.7056L39.7872 34.1766C39.8098 34.0302 39.8005 33.8807 39.7598 33.7383C39.7192 33.5959 39.6482 33.464 39.5517 33.3517C39.4553 33.2393 39.3356 33.1492 39.201 33.0874C39.0664 33.0257 38.9201 32.9938 38.772 32.994H35.8182C35.5605 32.9945 35.3124 33.092 35.1233 33.2671C34.9342 33.4422 34.8179 33.682 34.7976 33.939L33.8742 45.4734ZM24.3702 34.0632L24.786 45.5922C24.7958 45.8577 24.9082 46.109 25.0995 46.2933C25.2909 46.4776 25.5463 46.5805 25.812 46.5804H28.188C28.4537 46.5805 28.7091 46.4776 28.9004 46.2933C29.0918 46.109 29.2042 45.8577 29.214 45.5922L29.6298 34.0632C29.6371 33.9239 29.616 33.7847 29.5678 33.6539C29.5195 33.5231 29.4451 33.4036 29.3491 33.3025C29.2531 33.2014 29.1375 33.121 29.0093 33.0661C28.8812 33.0112 28.7432 32.983 28.6038 32.9832H25.38C25.242 32.9851 25.1057 33.015 24.9795 33.0708C24.8533 33.1267 24.7396 33.2075 24.6453 33.3083C24.551 33.4092 24.4781 33.528 24.4308 33.6577C24.3835 33.7874 24.3629 33.9253 24.3702 34.0632ZM14.2128 34.182L15.9624 45.711C15.9986 45.9543 16.1211 46.1764 16.3074 46.337C16.4938 46.4976 16.7316 46.5858 16.9776 46.5858H19.1052C19.2466 46.5854 19.3864 46.5559 19.5158 46.4991C19.6452 46.4422 19.7615 46.3592 19.8573 46.2552C19.9532 46.1513 20.0265 46.0286 20.0727 45.895C20.1189 45.7614 20.137 45.6197 20.1258 45.4788L19.2078 33.9498C19.1875 33.6928 19.0712 33.453 18.8821 33.2779C18.693 33.1028 18.4449 33.0053 18.1872 33.0048H15.228C15.081 33.0048 14.9357 33.0365 14.802 33.0976C14.6682 33.1587 14.5492 33.2478 14.4529 33.3589C14.3567 33.4701 14.2854 33.6006 14.244 33.7416C14.2025 33.8827 14.1919 34.031 14.2128 34.1766V34.182Z" fill="#5D6174"/>
</svg>
