<svg width="54" height="54" viewBox="0 0 54 54" fill="none" xmlns="http://www.w3.org/2000/svg">
<path d="M51.8063 0.84375H42.525C41.85 0.84375 41.175 1.35 41.175 2.19375V5.56875H6.75C6.075 5.56875 5.56875 6.075 5.56875 6.75V41.175H2.19375C1.51875 41.175 0.84375 41.6813 0.84375 42.525V51.8063C0.84375 52.4813 1.35 53.1562 2.19375 53.1562H11.475C12.15 53.1562 12.825 52.65 12.825 51.8063V48.4313H13.3313C14.0063 48.4313 14.6813 47.925 14.6813 47.0812C14.6813 46.2375 14.175 45.7313 13.3313 45.7313H12.825V42.8625L43.2 12.4875H46.0688V12.9937C46.0688 13.6687 46.575 14.3438 47.4188 14.3438C48.0938 14.3438 48.7688 13.8375 48.7688 12.9937V12.825H52.1438C52.8188 12.825 53.4938 12.3188 53.4938 11.475V2.19375C53.1563 1.35 52.65 0.84375 51.8063 0.84375ZM8.1 8.1H41.175V10.9688L10.8 41.3438H8.1V8.1Z" fill="#5D6174"/>
<path d="M41.8501 45.9H38.3063C37.6313 45.9 36.9563 46.4062 36.9563 47.25C36.9563 48.0937 37.4626 48.6 38.3063 48.6H41.8501C42.5251 48.6 43.2001 48.0937 43.2001 47.25C43.2001 46.4062 42.5251 45.9 41.8501 45.9Z" fill="#5D6174"/>
<path d="M27.5063 45.9H23.9625C23.2875 45.9 22.6125 46.4062 22.6125 47.25C22.6125 48.0937 23.1188 48.6 23.9625 48.6H27.5063C28.1813 48.6 28.8563 48.0937 28.8563 47.25C28.8563 46.4062 28.1813 45.9 27.5063 45.9Z" fill="#5D6174"/>
<path d="M20.4187 45.9H16.7062C16.0312 45.9 15.3562 46.4062 15.3562 47.25C15.3562 48.0937 15.8625 48.6 16.7062 48.6H20.25C20.925 48.6 21.6 48.0937 21.6 47.25C21.6 46.4062 21.0937 45.9 20.4187 45.9Z" fill="#5D6174"/>
<path d="M34.7626 45.9H31.2188C30.5438 45.9 29.8688 46.4062 29.8688 47.25C29.8688 48.0937 30.3751 48.6 31.2188 48.6H34.7626C35.4376 48.6 36.1126 48.0937 36.1126 47.25C36.1126 46.4062 35.4376 45.9 34.7626 45.9Z" fill="#5D6174"/>
<path d="M47.2501 44.2125C46.5751 44.2125 45.9001 44.7187 45.9001 45.5625V46.0687H45.5626C44.8876 46.0687 44.2126 46.575 44.2126 47.4187C44.2126 48.2625 44.7188 48.7687 45.5626 48.7687H47.2501C47.9251 48.7687 48.6001 48.2625 48.6001 47.4187V45.7312C48.4313 44.7187 47.9251 44.2125 47.2501 44.2125Z" fill="#5D6174"/>
<path d="M47.2501 15.525C46.5751 15.525 45.9001 16.0313 45.9001 16.875V20.4188C45.9001 21.0938 46.4063 21.7688 47.2501 21.7688C47.9251 21.7688 48.6001 21.2625 48.6001 20.4188V16.7063C48.4313 16.0313 47.9251 15.525 47.2501 15.525Z" fill="#5D6174"/>
<path d="M47.2501 22.6125C46.5751 22.6125 45.9001 23.1187 45.9001 23.9625V27.5062C45.9001 28.1812 46.4063 28.8562 47.2501 28.8562C47.9251 28.8562 48.6001 28.35 48.6001 27.5062V23.9625C48.4313 23.2875 47.9251 22.6125 47.2501 22.6125Z" fill="#5D6174"/>
<path d="M47.2501 36.9562C46.5751 36.9562 45.9001 37.4625 45.9001 38.3062V41.85C45.9001 42.525 46.4063 43.2 47.2501 43.2C47.9251 43.2 48.6001 42.6937 48.6001 41.85V38.3062C48.4313 37.6312 47.9251 36.9562 47.2501 36.9562Z" fill="#5D6174"/>
<path d="M47.2501 29.8687C46.5751 29.8687 45.9001 30.375 45.9001 31.2187V34.7625C45.9001 35.4375 46.4063 36.1125 47.2501 36.1125C47.9251 36.1125 48.6001 35.6062 48.6001 34.7625V31.2187C48.4313 30.375 47.9251 29.8687 47.2501 29.8687Z" fill="#5D6174"/>
</svg>
