<svg width="54" height="54" viewBox="0 0 54 54" fill="none" xmlns="http://www.w3.org/2000/svg">
<path d="M36.8173 4.21736C36.8174 4.65044 36.7406 5.0801 36.5905 5.48636L41.4505 16.686H35.6401L31.7035 7.60856C31.092 7.34906 30.5621 6.92875 30.1703 6.39226C29.7784 5.85578 29.5392 5.22317 29.4781 4.56164C29.417 3.90012 29.5362 3.23439 29.8231 2.63519C30.11 2.03599 30.5539 1.5257 31.1075 1.15854C31.6612 0.791383 32.304 0.581064 32.9676 0.549934C33.6312 0.518804 34.2909 0.668025 34.8765 0.981742C35.4621 1.29546 35.9518 1.76195 36.2935 2.33166C36.6352 2.90137 36.8162 3.55302 36.8173 4.21736ZM18.3601 16.686L22.2859 7.60856C22.9555 7.33287 23.5292 6.86615 23.9353 6.26661C24.3415 5.66706 24.5621 4.96122 24.5698 4.2371C24.5775 3.51298 24.3718 2.80263 23.9784 2.19463C23.585 1.58662 23.0214 1.10788 22.3577 0.818085C21.6941 0.528292 20.9598 0.440279 20.2465 0.565021C19.5332 0.689762 18.8723 1.02174 18.3464 1.51955C17.8205 2.01736 17.4528 2.65898 17.2891 3.3644C17.1254 4.06982 17.173 4.80781 17.4259 5.48636L12.5659 16.686H18.3601ZM4.86012 20.3256H49.1077C50.0544 20.3256 50.9623 20.7016 51.6317 21.371C52.3011 22.0404 52.6771 22.9483 52.6771 23.895V28.4256C52.6771 28.8943 52.5848 29.3584 52.4054 29.7915C52.226 30.2246 51.9631 30.6181 51.6317 30.9495C51.3002 31.281 50.9067 31.5439 50.4737 31.7233C50.0406 31.9026 49.5765 31.995 49.1077 31.995H47.8603L44.2801 49.0104C44.1353 49.6639 43.8456 50.2766 43.4323 50.8032C42.999 51.3555 42.4749 51.8303 41.8825 52.2072C41.2569 52.6086 40.5767 52.9177 39.8629 53.1252C39.1055 53.3485 38.3198 53.4612 37.5301 53.46H16.4701C15.6895 53.4586 14.9131 53.3459 14.1643 53.1252C13.4505 52.9177 12.7703 52.6086 12.1447 52.2072C11.5523 51.8304 11.0282 51.3556 10.5949 50.8032C10.172 50.2791 9.87299 49.6662 9.72012 49.0104L6.13992 31.995H4.89252C4.42378 31.995 3.95963 31.9026 3.52657 31.7233C3.09351 31.5439 2.70002 31.281 2.36857 30.9495C2.03712 30.6181 1.7742 30.2246 1.59482 29.7915C1.41545 29.3584 1.32312 28.8943 1.32312 28.4256V23.895C1.32312 22.9483 1.69918 22.0404 2.36857 21.371C3.03797 20.7016 3.94586 20.3256 4.89252 20.3256H4.86012ZM33.8743 45.4734C33.8632 45.6143 33.8812 45.756 33.9274 45.8896C33.9736 46.0232 34.047 46.1459 34.1428 46.2498C34.2386 46.3538 34.3549 46.4368 34.4843 46.4937C34.6138 46.5505 34.7535 46.5801 34.8949 46.5804H37.0225C37.2685 46.5805 37.5063 46.4922 37.6927 46.3316C37.879 46.171 38.0015 45.9489 38.0377 45.7056L39.7873 34.1766C39.8099 34.0302 39.8006 33.8807 39.7599 33.7383C39.7193 33.5959 39.6483 33.464 39.5518 33.3517C39.4554 33.2393 39.3358 33.1492 39.2012 33.0874C39.0666 33.0257 38.9202 32.9938 38.7721 32.994H35.8183C35.5606 32.9945 35.3125 33.092 35.1234 33.2671C34.9343 33.4422 34.8181 33.682 34.7977 33.939L33.8743 45.4734ZM24.3703 34.0632L24.7861 45.5922C24.7959 45.8577 24.9083 46.109 25.0997 46.2933C25.291 46.4776 25.5464 46.5805 25.8121 46.5804H28.1881C28.4538 46.5805 28.7092 46.4776 28.9006 46.2933C29.0919 46.109 29.2043 45.8577 29.2141 45.5922L29.6299 34.0632C29.6373 33.9239 29.6161 33.7847 29.5679 33.6539C29.5196 33.5231 29.4452 33.4036 29.3492 33.3025C29.2532 33.2014 29.1376 33.121 29.0094 33.0661C28.8813 33.0112 28.7433 32.983 28.6039 32.9832H25.3801C25.2421 32.9851 25.1059 33.015 24.9796 33.0708C24.8534 33.1267 24.7397 33.2075 24.6455 33.3083C24.5512 33.4092 24.4782 33.528 24.4309 33.6577C24.3837 33.7874 24.363 33.9253 24.3703 34.0632ZM14.2129 34.182L15.9625 45.711C15.9988 45.9543 16.1212 46.1764 16.3076 46.337C16.4939 46.4976 16.7317 46.5858 16.9777 46.5858H19.1053C19.2467 46.5854 19.3865 46.5559 19.5159 46.4991C19.6453 46.4422 19.7616 46.3592 19.8575 46.2552C19.9533 46.1513 20.0266 46.0286 20.0728 45.895C20.119 45.7614 20.1371 45.6197 20.1259 45.4788L19.2079 33.9498C19.1876 33.6928 19.0713 33.453 18.8822 33.2779C18.6931 33.1028 18.445 33.0053 18.1873 33.0048H15.2281C15.0811 33.0048 14.9358 33.0365 14.8021 33.0976C14.6684 33.1587 14.5493 33.2478 14.4531 33.3589C14.3568 33.4701 14.2855 33.6006 14.2441 33.7416C14.2027 33.8827 14.192 34.031 14.2129 34.1766V34.182Z" fill="#D6D8E1"/>
</svg>
