<svg width="28" height="28" viewBox="0 0 28 28" fill="none" xmlns="http://www.w3.org/2000/svg">
    <path d="M22.288 6.94751C22.4074 6.82565 22.5499 6.72884 22.7073 6.66275C22.8646 6.59666 23.0335 6.56262 23.2041 6.56262C23.3747 6.56262 23.5436 6.59666 23.7009 6.66275C23.8582 6.72884 24.0008 6.82565 24.1202 6.94751C24.6207 7.45326 24.6277 8.27051 24.1377 8.78501L13.79 21.0175C13.6725 21.1465 13.5299 21.2502 13.371 21.3222C13.212 21.3942 13.0401 21.4331 12.8656 21.4364C12.6912 21.4396 12.5179 21.4073 12.3564 21.3413C12.1948 21.2753 12.0485 21.177 11.9262 21.0525L5.62972 14.672C5.38688 14.4244 5.25085 14.0913 5.25085 13.7445C5.25085 13.3977 5.38688 13.0647 5.62972 12.817C5.74915 12.6951 5.89169 12.5983 6.049 12.5323C6.2063 12.4662 6.37521 12.4321 6.54584 12.4321C6.71647 12.4321 6.88538 12.4662 7.04269 12.5323C7.19999 12.5983 7.34254 12.6951 7.46197 12.817L12.803 18.2298L22.253 6.98601C22.2639 6.97248 22.2755 6.95963 22.288 6.94751Z" fill="white" />
</svg>
