<svg width="28" height="28" viewBox="0 0 28 28" fill="none" xmlns="http://www.w3.org/2000/svg">
<path d="M26.1133 21C25.7487 21.6198 25.2201 22.0254 24.5273 22.2168C23.8346 22.4082 23.1738 22.3216 22.5449 21.957C21.916 21.5924 21.5059 21.0592 21.3145 20.3574C21.123 19.6556 21.2096 18.9948 21.5742 18.375C22.6862 16.4427 23.306 14.3783 23.4336 12.1816C23.5612 9.98503 23.2012 7.89323 22.3535 5.90625C21.5059 3.91927 20.2526 2.21484 18.5938 0.792969C19.4505 1.08464 20.2526 1.44922 21 1.88672C22.6406 2.83464 24.026 4.06055 25.1562 5.56445C26.2865 7.06836 27.0794 8.67253 27.5352 10.377C27.9909 12.0814 28.1048 13.8678 27.877 15.7363C27.6491 17.6048 27.0612 19.3594 26.1133 21ZM21 26.1133C19.3594 27.0612 17.6048 27.6491 15.7363 27.877C13.8678 28.1048 12.0814 27.9909 10.377 27.5352C8.67253 27.0794 7.06836 26.2865 5.56445 25.1562C4.06055 24.026 2.83464 22.6406 1.88672 21C1.52214 20.3802 1.43099 19.7194 1.61328 19.0176C1.79557 18.3158 2.20117 17.7826 2.83008 17.418C3.45898 17.0534 4.12435 16.9668 4.82617 17.1582C5.52799 17.3496 6.0612 17.7552 6.42578 18.375C7.26432 19.8333 8.32161 21.0911 9.59766 22.1484C10.8737 23.2057 12.25 23.9941 13.7266 24.5137C15.2031 25.0332 16.7572 25.3158 18.3887 25.3613C20.0202 25.4069 21.6016 25.1471 23.1328 24.582C22.4583 25.1836 21.7474 25.694 21 26.1133ZM14 5.25C11.7578 5.25 9.6569 5.74674 7.69727 6.74023C5.73763 7.73372 4.11068 9.0918 2.81641 10.8145C1.52214 12.5371 0.665365 14.474 0.246094 16.625C0.0820312 15.7318 0 14.8568 0 14C0 12.1042 0.369141 10.2904 1.10742 8.55859C1.8457 6.82682 2.83919 5.33659 4.08789 4.08789C5.33659 2.83919 6.82682 1.8457 8.55859 1.10742C10.2904 0.369141 12.1042 0 14 0C14.7292 0 15.349 0.255208 15.8594 0.765625C16.3698 1.27604 16.625 1.89583 16.625 2.625C16.625 3.35417 16.3698 3.97396 15.8594 4.48438C15.349 4.99479 14.7292 5.25 14 5.25Z" fill="white"/>
</svg>
